<?xml version="1.0" encoding="UTF-8"?>
<svg id="Layer_2" data-name="Layer 2" xmlns="http://www.w3.org/2000/svg" viewBox="0 0 1524.8 1490.75">
  <defs>
    <style>
      .cls-1 {
        fill: #fefefe;
      }
    </style>
  </defs>
  <g id="Layer_1-2" data-name="Layer 1">
    <g>
      <path class="cls-1" d="M569.74,1490.16c-12.24.78-29.75.8-41.97,0-70.23-4.58-148.89-35.72-166.6-110.79-17.67-74.92,5.6-148.23-34.1-221.88-55.06-102.15-161.35-97.97-237.03-166.81C-73.47,841.94,2.74,510.87,182.32,405.99c62.54-36.52,106.09-28.26,174.05-34.83,87.73-8.49,132.55-30.58,191.89-93.98C653.02,165.26,768.47,25.09,930.15,3.3c185.76-25.04,417.11,94.69,469.55,281.86,33.33,118.95-21.48,182.86-45.98,290.99-17.17,75.79-10.47,119.81,20.32,189.69,29.77,67.57,62.16,130.05,87.87,200.07,54.3,147.92,125.97,358.95-40.81,462.66-124.43,77.38-317.9,52.62-450.14,6.6-13.11-4.56-25.85-10.55-38.93-15.04-133.13-45.78-234.78,61.87-362.29,70.03ZM131.61,447.74c-158.31,149-197.48,485.46,32.72,587.59,72.05,31.96,140.21,58.76,173.03,137.86,29.63,71.42,8.6,143.26,28.02,211.97,27.46,97.2,162.51,113.73,246.53,95.69,109.86-23.59,200.68-103.88,319.12-63.71,54.78,18.58,100.19,36.11,158.19,46.7,180.6,32.99,428.77,5.12,433.94-228.14,2.14-96.51-49.35-237.67-86.52-327.51-31.29-75.65-94.97-176.83-95.45-257.48-.7-117.94,81.02-209.89,63.73-329.77-31.47-218.17-308.45-356.71-511.21-308.09-104.03,24.95-204.35,115.86-277.03,191.79-69.87,73-105.92,140.63-213.63,162.23-67.48,13.53-134.1,1.45-197.76,30.12-27.33,12.31-51.99,30.33-73.69,50.76Z"/>
      <path class="cls-1" d="M639.04,228.5c85.39-85.92,181.01-167,307.96-173.34,166.16-8.29,364.34,102.04,407.94,269.77,33.02,127.02-47.87,205.18-51.67,324.73-2.53,79.6,59.23,178.1,89.4,252.52,35.46,87.46,84.98,223.61,76.47,317.46-20.45,225.63-295.89,227.38-462.11,182.43-80.21-21.69-118.6-55.18-207.66-32.64-96.39,24.4-164.02,79.31-271.97,63.58-78.16-11.39-133.45-44.43-143.42-127.49-9.72-80.98,6.7-150.22-56.06-215.9-54.27-56.8-127.88-63.15-184.92-111.96C-14.17,843.16,52.47,532.3,218.66,432.35c70.57-42.44,131.44-25.93,207.36-40.51,106.76-20.49,142.62-92.5,213.02-163.34ZM961.28,57.45c-67.22.82-132.4,21.4-187.39,59.49-51.75,35.83-105.74,84.14-149.21,129.69-68.34,71.63-98.63,131.08-205.63,149.24-75.62,12.83-130.65-2.74-201,39.87C55.17,534.38-8.81,838.3,141.49,973.18c52.95,47.52,123.34,55.44,177.42,104.46,68.71,62.28,59.82,127,65.95,211,6.16,84.41,42.65,120,123.9,138.02,115.03,25.51,182.32-30.55,284.61-58.23,89.4-24.19,120.36,3.9,200.09,27.21,188.18,55.02,485.57,46.48,473.73-219.05-4.08-91.56-56.74-228.16-93.81-313.13-35.72-81.89-82.53-148.26-69.99-242.68,13.13-98.81,71.67-170.24,53.51-274.83-30.16-173.65-229.1-290.55-395.63-288.52Z"/>
      <path class="cls-1" d="M932.3,110.45c197.52-10.37,440.2,163.82,372.67,381.92-27.35,88.34-61.67,150.97-27.71,246.31,21.01,58.99,53.05,116.61,75.72,176.23,24,63.1,57.9,157.1,61.25,223.71,12.27,243.58-249.18,261.58-426.98,213.26-28.46-7.74-53.56-19.02-80.95-28-96.7-31.69-174.62,29.6-264.6,49.8-49.96,11.21-97.32,9.43-145.43-8.49-136.3-50.76-55.49-178.9-117.99-276.93-36.19-56.76-84.76-68.78-140.37-96.54-198.08-98.88-151.25-422.6,13.51-530.57,69.39-45.47,126.28-27.59,201.6-42.27,88.63-17.27,115.28-65.55,172.17-125.72,82.7-87.47,180.77-176.06,307.11-182.69ZM926.3,113.45c-117.43,7.03-216.2,93.77-293.63,175.18-57.59,60.56-87.51,114.44-176.65,132.23-64.63,12.9-124.73.02-185.11,31.77-162.58,85.5-225.35,383.38-76.4,507.5,49.44,41.2,112.08,48.92,160.38,95.51,57.05,55.03,51.35,112.46,56.96,185,6.13,79.33,38.23,113.1,114.9,131.02,108.83,25.44,170.93-28.44,267.83-52.02,87.05-21.18,120.66,10.62,198.66,31.22,158.54,41.87,410.63,32.45,418.98-183.17,3.44-88.88-50.34-228.57-85.81-311.22-34.4-80.17-76.85-140.29-62.98-232.66s63.92-151.24,46.5-246.84c-30.46-167.13-223.67-273.1-383.64-263.52Z"/>
      <path class="cls-1" d="M919.3,165.45c139.3-7.35,305.67,86.36,342.7,226.49,26.37,99.82-25.37,154.27-37.55,245.86-11.29,84.94,31.45,147.58,62.28,222.39,30.59,74.19,76.48,195.1,72.53,274.51-9.65,193.59-236.13,206.81-380.8,169.97-31.22-7.95-59.08-21.38-88.94-30.01-93.02-26.86-172.04,38.04-261.47,49.36-67.85,8.59-164.06-12.87-184.95-87.64-19.08-68.28,4.7-128.84-46.28-191.69-43.46-53.58-106.01-58.51-155.34-99.56-134.87-112.2-87.11-372.83,52.52-461.39,67.7-42.94,126.8-22.68,198.99-40.88,64.42-16.23,86.97-50.51,129.19-95.72,80.43-86.14,172.52-175.12,297.11-181.69ZM913.31,168.45c-109.26,6.54-200.65,86.33-272.64,162.18-54.62,57.54-78.58,102.38-163.68,118.21-68.68,12.78-119.58-2.75-182.98,37.9-148.45,95.17-188.99,384.45-18.74,478.59,48.01,26.55,89.15,34.17,125.99,80.93,70.12,89-9.12,213.51,116,261.93,54.14,20.95,105.32,18.35,160.19,2.24,48.11-14.13,95.39-38.94,145.76-44.14,58.34-6.03,97.32,20.42,151.06,34.59,161.28,42.53,394.27,21.16,381.96-197.21-3.9-69.24-44.61-176.19-71.48-241.48-28.01-68.07-71.42-136.23-64.42-212.52,8.84-96.25,67.34-156.02,38.46-259.51-39.49-141.53-204.7-230.13-345.48-221.71Z"/>
      <path class="cls-1" d="M1150.01,316.51c34.84,34.97,62.33,80.91,70.15,130.31,12.68,80.08-30.48,134.1-37.81,209.85-6.8,70.26,31.07,131.7,56.43,194.53,26.26,65.06,62.63,159.98,64.5,229.46,5.29,196.26-219.97,211.38-362.54,168.78-32.31-9.65-62.36-26.42-96.63-28.31-64.05-3.54-124.42,34.31-186.21,45.75-69.61,12.88-168.92-4.96-189.21-84.08-14.35-55.97.79-105.52-36.03-157.94-35.99-51.23-85.11-55.42-131.04-87.87-137.28-96.98-99.64-347.44,34.38-430.23,57.06-35.25,103.3-22.02,164.83-33.06,74.06-13.29,94.07-46.9,141.37-97.54,49.18-52.65,124.93-122,194.39-143.48,108.53-33.56,234.49,4.61,313.44,83.85ZM496.14,1227.81c35.28,35.3,104.52,45.27,151.92,38.22,82.87-12.34,150.97-68.47,238.99-38.88,28.31,9.52,52.8,20.38,82.61,27.33,129.15,30.14,323.22,12.35,331.64-156.78,3.49-70.08-37.97-178.63-64.53-244.51-33.88-84.02-71.86-134.98-51.12-231.22,16.42-76.21,50.84-117.51,25.69-201.33-41.6-138.63-216.81-222.25-353.8-190.99-78.21,17.84-154.8,85.88-208.88,142.98-45.64,48.2-68.28,87.32-138.85,102.06-52.93,11.06-104.66.78-154.61,24.29-140.97,66.34-188.27,314.36-70.29,421.69,46.65,42.44,107.88,45.43,148.75,101.15,47.48,64.74,12.54,156.01,62.48,205.98Z"/>
      <path class="cls-1" d="M888.32,274.45c133.17-7.62,291.45,94.42,287.03,239.22-1.6,52.43-29.15,98.01-33.98,151-6.04,66.27,32.58,131.68,55.7,192.24,16.61,43.52,34.74,93.86,44.73,139.24,44.37,201.49-151.21,247.41-306.53,205.73-61.84-16.6-82.49-39.13-152.7-23.23-85.66,19.41-150.41,63.98-239.85,14.03-74.25-41.47-39.27-118.59-71.39-182.57-32.45-64.63-102.06-66.22-147.48-113.43-91.38-94.98-62.37-283.52,40.68-359.34,54.17-39.85,92.79-27.47,153.57-36.33,90.71-13.22,111.27-68.24,171.52-124.37,56.84-52.96,118.22-97.59,198.68-102.19ZM882.33,277.45c-83.52,5.5-159.81,67.14-215.68,125.18-44.12,45.83-64.68,84.34-132.68,98.23-63.72,13.02-109-3.89-166.99,37.9-115.76,83.44-137.23,311.16-1.78,386.56,42.84,23.85,79.85,32.91,106.12,79.81,37.67,67.25-4.46,149.46,81.07,189.88,91.46,43.22,150.89-3.33,236.17-20.39,71.94-14.4,103.63,16.21,168.89,30.07,139.23,29.58,313.05-11.97,285.56-189.74-13.66-88.33-60.19-175.73-89.92-259.02-29.49-82.62-9-117.54,12.53-195.01,46.54-167.48-131.16-293.5-283.28-283.47Z"/>
      <path class="cls-1" d="M377.22,881.81c-89.15-85.76-63.85-269.92,41.32-332.46,46.11-27.42,85.14-16.86,134.43-25.48,73.73-12.89,93.97-61.11,143.68-107.22,73.34-68.04,146.53-107.64,249.86-83,107.38,25.6,206.25,124.91,177.58,242.72-7.96,32.7-21.74,62.46-23.74,97.25-3.49,60.94,30.21,121.13,50.76,177.29,13,35.53,27.67,76.29,35.92,113.06,40.89,182.43-144.87,225.1-283.27,181.46-52.51-16.56-66.93-29.8-126.34-16.96-75.81,16.39-133.62,52.1-211.34,7.86-68.86-39.19-36.04-106.15-69.11-163.84-29.35-51.19-81.4-53.79-119.74-90.68ZM1066.06,401.51c-61.88-60.25-160.91-88.65-244.48-62.84-45.67,14.1-97.26,54.36-131.44,87.45-48.41,46.87-65.23,88.65-139.18,100.75-31.56,5.17-64.97,1.33-95.36,9.57-134.85,36.59-174.18,256.07-73.26,346.74,36.85,33.11,84.09,37.05,113.86,83.06,38.95,60.19-.11,134.41,78.86,172.09,75.49,36.02,126.3,4.72,198.54-11.69s93.56,9.29,159.09,23.83c68.1,15.1,157.88,12.43,213.15-35.34,76.23-65.89,36.59-168,8.54-247.49-20.09-56.93-60.26-131.04-56.97-190.97,2.87-52.32,31.8-98.32,29.02-151.06-2.48-47.03-27.24-91.86-60.36-124.1Z"/>
      <path class="cls-1" d="M1100.81,1062.57c-54.03,51.71-148.7,52.13-216.06,29.87-13.46-4.45-26.21-11.41-39.97-15-82.96-21.64-150.89,49.38-242.02,9.18-66.78-29.45-50.11-67.63-67.49-124.46-14.15-46.23-44.16-57.38-81.75-79.2-128.33-74.49-88.92-320.57,65.72-330.85,36.87-2.45,70.32-.05,104.14-18.79,22.98-12.73,37.49-33.26,55.27-51.7,37.62-39.03,90.06-84,143.72-97.18,128.81-31.65,290.6,74.52,254.76,217.92-6.65,26.63-16.14,49.9-17.75,78.24-2.96,52.34,25.86,108.33,43.03,157.02,25.67,72.8,64.13,162.03-1.6,224.93ZM1030.86,448.74c-64.54-66.46-171.4-89.34-254.27-43.1-48.91,27.29-77.69,60.4-115.39,99.54-50.57,52.49-81.68,44.11-148.79,50.11-134.66,12.06-175.41,221.78-83.1,306.9,29.99,27.65,67.41,32.44,93.28,68.66,37.11,51.96,4.47,115.7,73.76,150.19,86.96,43.3,146.1-15.98,228.72-9.87,23.84,1.76,46.01,14.54,68.7,21.25,119.09,35.21,272.14-9.49,235.54-161.69-14.68-61.05-42.37-118.54-61.17-177.79-20.38-64.19-9.24-89.18,6.2-150.37,14.66-58.1-2.55-111.7-43.47-153.84Z"/>
      <path class="cls-1" d="M699,507.51c32.7-32.63,77.96-65.95,124.38-74.03,99.97-17.41,218.54,55.58,212.09,165.23-1.52,25.79-13.29,51.45-16.02,77.97-7.71,74.64,47.78,160.79,60.68,235.26,19.79,114.16-99.25,155.8-191.81,133.94-18.64-4.4-34.21-13.3-51.76-18.2-74.76-20.88-134.6,38.88-215.22.36-55.74-26.64-42.73-57.2-59.86-105.1-18.25-51.04-61.89-51.83-93.2-86.74-71.61-79.85-40.29-246.87,77.97-260.01,25.31-2.81,48.1-.45,73.66-7.29,39.71-10.64,52.37-34.71,79.08-61.37ZM845.35,433.45c-50.46,2.77-95.17,30.1-131.72,63.19-40.17,36.38-50.1,68.93-110.58,78.35-22.68,3.53-46.55,1.11-68.3,5.66-116.09,24.28-135.22,205.7-45.87,270.92,26.63,19.44,51.33,24.59,69.04,56.91,20.81,37.98,6.48,79.01,48.07,107.9,80.9,56.21,150.25-12.45,228.79,8.06,13.69,3.57,26.42,10.75,39.99,14.98,96.14,30.02,227.57-10.85,201.32-133.46-15.96-74.54-67.91-159.35-58.51-235.17,2.08-16.74,7.89-32.2,11.56-48.44,24.81-109.87-81.11-194.55-183.79-188.91Z"/>
      <path class="cls-1" d="M836.38,482.42c81.58-1.2,157.86,60.65,152.12,146.28-1.21,18.02-8.8,35.67-10.02,53.97-4.55,67.73,32.19,127.47,45.64,191.31,20.6,97.73-87.52,141.43-167.11,115.22-9.69-3.19-18.68-8.55-28.43-11.55-68.61-21.11-121.98,30.91-194.8-12.07-46.46-27.42-29.69-62.72-55.63-98.33-12.02-16.5-26.07-22.1-41.7-33.27-64.31-45.98-71.75-160.66-10.69-212.33,41.39-35.02,87.68-14.15,132.61-33.31,21.08-8.99,30.21-23.38,45.26-38.71,35.75-36.38,79.68-66.43,132.76-67.21ZM717.22,539.74c-32.34,30.7-39.78,52-89.19,59.25-17.66,2.59-35.4.85-52.53,3.44-96.9,14.62-112.71,146.77-56.71,212.2,17.08,19.95,41.64,27.64,58.45,47.52,28.96,34.25,11.61,73.49,57.14,100.82,64.01,38.42,106.95,2.49,170.68,7.2,24.45,1.81,43.95,15.36,67.46,20.5,79.53,17.38,170.79-29.45,147.63-121.73-16.52-65.83-53.31-130.25-42.4-199.99,1.85-11.84,6.03-23.68,7.58-35.41,12.23-92.7-80.47-158.11-166.14-147.25-37.8,4.79-74.84,27.69-101.98,53.45Z"/>
      <path class="cls-1" d="M812.38,534.45c59.35-4.27,119.72,33.15,128.84,94.48,4.16,27.94-5.44,55.51-3.76,84.77,2.67,46.43,24.07,87.04,32.57,130.41,11.38,58.04-47.83,100.88-101.03,98.1-28.09-1.47-48.7-18.94-76.91-21.04-52.68-3.91-83.86,17.63-136.07-12.84-30.04-17.53-27.78-30.27-40.44-58.53-12.89-28.76-36.37-34.8-53.64-58.33-39.32-53.57-34.67-152.48,41.95-167.65,26.75-5.3,52.33.53,78.45-11.49,19.17-8.82,29.37-26.07,44.29-39.69,22.61-20.64,54.97-35.97,85.75-38.19ZM807.38,537.46c-23.57,2.09-51.62,15.38-70.21,29.74-23.33,18.03-34.04,42.47-64.5,51.45-28.05,8.27-57.05,1.4-83.62,12.32-67.63,27.79-59.13,132.12-11.33,174.69,8.67,7.72,18.93,13.06,26.97,22.01,26.16,29.14,12.89,57.8,56.32,80.64,53.84,28.32,84.75,4.07,136.96,10.95,23.6,3.11,42.51,17.76,65.21,19.75,54.63,4.79,116.63-35.17,103.81-95.88-10.83-51.31-35.23-95.91-32.48-151.48.6-12.09,4.18-24.04,5.03-35.97,5.42-76.65-59.79-124.66-132.15-118.24Z"/>
      <path class="cls-1" d="M721.29,624.81c5.95-5.52,11.37-13.19,17.87-18.62,33.84-28.3,94.42-27.87,127.91.94,40.88,35.16,25.95,86.97,31.58,134.4,3.02,25.46,11.78,46.06,16.41,69.58,8.31,42.23-46.54,88.03-87.75,72.8-24.43-9.03-33.98-15.42-62.16-16.8-39.61-1.94-54.98,2.46-91.5-18.44-25.92-14.83-22.94-26.32-37.54-47.43-5.36-7.75-13.08-13.7-18.91-21.08-25.97-32.86-43.23-98.83-.61-125.64,33.55-21.11,70.77,1.73,104.71-29.72ZM791.39,588.46c-18.04,1.6-39.02,9.4-52.78,21.19-6.99,5.99-12.02,14.02-18.96,20.02-29.6,25.6-62.46,9.92-93.93,23-47.08,19.58-34.9,84.61-11.82,118.79,7.45,11.03,17.93,18.9,25.2,29.78,12.03,17.99,10.65,29.53,31.27,42.71,38.41,24.56,61.66,18.55,103.78,21.15,22.4,1.38,32.19,8.07,51.44,15.52,30.99,11.99,64.33-7.09,79.73-34.18,15.59-27.42,4.05-40.27-2.32-67.29-5.57-23.64-8.67-48.18-9.52-72.47-.84-23.9,2.85-43.69-6.19-66.8-15.58-39.82-55.33-55.03-95.9-51.44Z"/>
    </g>
  </g>
</svg>