<svg width="888" height="861" viewBox="0 0 888 861" fill="none" xmlns="http://www.w3.org/2000/svg">
<path d="M331.8 860.646C324.672 861.097 314.474 861.108 307.358 860.646C266.458 858.001 220.649 840.016 210.335 796.659C200.045 753.389 213.596 711.048 190.476 668.512C158.411 609.515 96.5107 611.929 52.437 572.17C-42.7864 486.265 1.59604 295.054 106.178 234.481C142.6 213.388 167.962 218.159 207.54 214.365C258.631 209.461 284.733 196.703 319.291 160.086C380.3 95.4464 447.534 14.4909 541.692 1.90598C649.873 -12.5559 784.605 56.5945 815.144 164.695C834.554 233.395 802.635 270.306 788.367 332.757C778.367 376.53 782.269 401.954 800.201 442.313C817.538 481.338 836.401 517.424 851.373 557.864C882.996 643.296 924.735 765.177 827.607 825.075C755.142 869.766 642.471 855.465 565.459 828.887C557.824 826.253 550.404 822.793 542.787 820.2C465.256 793.76 406.058 855.933 331.8 860.646ZM76.6461 258.594C-15.5489 344.649 -38.3604 538.972 95.7013 597.958C137.661 616.416 177.355 631.895 196.469 677.579C213.724 718.828 201.477 760.319 212.787 800.003C228.779 856.141 307.428 865.688 356.359 855.269C420.338 841.645 473.229 795.273 542.205 818.473C574.107 829.204 600.552 839.329 634.33 845.445C739.506 864.498 884.033 848.402 887.044 713.682C888.29 657.942 858.304 576.415 836.657 524.528C818.434 480.836 781.349 422.399 781.07 375.819C780.662 307.703 828.253 254.597 818.184 185.36C799.857 59.3552 638.552 -20.659 520.471 7.42161C459.887 21.8316 401.463 74.3369 359.136 118.19C318.446 160.352 297.452 199.412 234.725 211.887C195.426 219.701 156.629 212.724 119.555 229.283C103.639 236.392 89.2777 246.8 76.6403 258.599L76.6461 258.594Z" fill="#E8E4F3"/>
<path d="M372.158 131.971C421.886 82.3476 477.573 35.5196 551.505 31.858C648.271 27.07 763.685 90.7914 789.077 187.664C808.307 261.025 761.199 306.167 758.986 375.213C757.512 421.186 793.48 478.075 811.05 521.057C831.7 571.569 860.539 650.203 855.583 704.407C843.674 834.72 683.266 835.731 586.464 809.77C539.752 797.242 517.395 777.9 465.529 790.918C409.395 805.011 370.009 836.724 307.142 827.639C261.624 821.061 229.425 801.978 223.618 754.007C217.958 707.237 227.52 667.247 190.971 629.313C159.366 596.508 116.497 592.841 83.2789 564.65C-8.25227 486.97 30.5569 307.431 127.341 249.705C168.439 225.194 203.888 234.729 248.101 226.308C310.275 214.474 331.159 172.885 372.158 131.971ZM559.821 33.1805C520.674 33.6541 482.715 45.5402 450.69 67.5392C420.553 88.2329 389.111 116.134 363.795 142.442C323.996 183.812 306.356 218.148 244.042 228.636C200.003 236.046 167.956 227.053 126.986 251.663C32.1293 308.633 -5.13077 484.163 82.3995 562.063C113.236 589.508 154.229 594.082 185.724 622.394C225.738 658.364 220.561 695.743 224.131 744.258C227.718 793.009 248.969 813.564 296.287 823.972C363.277 838.705 402.464 806.327 462.035 790.341C514.099 776.37 532.129 792.593 578.562 806.056C688.152 837.833 861.343 832.901 854.448 679.543C852.072 626.662 821.404 547.769 799.816 498.694C779.013 451.398 751.753 413.066 759.056 358.533C766.702 301.465 800.794 260.211 790.218 199.805C772.654 99.5125 656.797 31.9966 559.815 33.169L559.821 33.1805Z" fill="#E8E4F3"/>
<path d="M542.945 63.7909C657.974 57.8016 799.304 158.406 759.977 284.37C744.049 335.391 724.062 371.563 743.839 426.627C756.075 460.697 774.734 493.975 787.936 528.409C801.913 564.852 821.655 619.142 823.606 657.613C830.752 798.293 678.491 808.689 574.946 780.782C558.372 776.312 543.754 769.797 527.803 764.611C471.488 746.308 426.109 781.706 373.708 793.373C344.613 799.847 317.031 798.819 289.014 788.469C209.637 759.153 256.698 685.145 220.3 628.528C199.224 595.746 170.938 588.804 138.552 572.771C23.1965 515.662 50.469 328.697 146.42 266.339C186.831 240.077 219.962 250.404 263.826 241.925C315.442 231.951 330.962 204.067 364.093 169.316C412.255 118.797 469.368 67.6316 542.945 63.8024V63.7909ZM539.45 65.5235C471.063 69.5837 413.542 119.681 368.449 166.699C334.91 201.676 317.486 232.794 265.573 243.069C227.935 250.519 192.934 243.081 157.771 261.418C63.0889 310.799 26.5335 482.84 113.278 554.526C142.07 578.321 178.55 582.78 206.678 609.688C239.902 641.471 236.583 674.639 239.85 716.535C243.42 762.352 262.114 781.856 306.764 792.206C370.144 806.899 406.309 775.781 462.741 762.162C513.436 749.929 533.009 768.295 578.434 780.193C670.763 804.375 817.573 798.935 822.436 674.403C824.439 623.07 793.119 542.391 772.463 494.657C752.429 448.354 727.707 413.632 735.785 360.283C743.862 306.935 773.01 272.934 762.865 217.72C745.126 121.194 632.606 59.9906 539.445 65.5235H539.45Z" fill="#E8E4F3"/>
<path d="M535.373 95.5562C616.497 91.3112 713.386 145.434 734.951 226.366C750.308 284.017 720.176 315.465 713.083 368.363C706.508 417.421 731.399 453.599 749.353 496.805C767.168 539.654 793.893 609.486 791.592 655.349C785.973 767.158 654.077 774.793 569.826 753.516C551.644 748.924 535.419 741.168 518.03 736.184C463.858 720.671 417.839 758.154 365.757 764.692C326.244 769.653 270.214 757.259 258.048 714.075C246.936 674.64 260.785 639.663 231.096 603.364C205.786 572.418 169.359 569.571 140.63 545.863C62.0862 481.061 89.9002 330.534 171.217 279.386C210.643 254.585 245.061 266.287 287.102 255.775C324.619 246.401 337.751 226.603 362.339 200.492C409.179 150.741 462.809 99.3508 535.367 95.5562H535.373ZM531.884 97.2889C468.255 101.066 415.032 147.149 373.107 190.956C341.298 224.189 327.344 250.086 277.785 259.229C237.787 266.61 208.145 257.641 171.222 281.118C84.7695 336.084 61.1602 503.158 160.309 557.529C188.268 572.863 212.227 577.264 233.682 604.271C274.517 655.673 228.37 727.584 301.237 755.549C332.766 767.649 362.572 766.147 394.526 756.843C422.544 748.682 450.079 734.353 479.413 731.35C513.388 727.867 536.089 743.143 567.386 751.327C661.31 775.89 796.997 763.548 789.828 637.428C787.557 597.438 763.848 535.669 748.2 497.96C731.888 458.646 706.607 419.28 710.684 375.219C715.832 319.629 749.901 285.109 733.082 225.338C710.084 143.597 613.87 92.4259 531.884 97.2889Z" fill="#E8E4F3"/>
<path d="M669.733 182.801C690.023 202.998 706.033 229.531 710.587 258.062C717.971 304.313 692.836 335.512 688.567 379.262C684.607 419.84 706.662 455.325 721.43 491.613C736.723 529.189 757.904 584.01 758.993 624.138C762.074 737.489 630.889 746.221 547.861 721.618C529.044 716.044 511.544 706.359 491.586 705.267C454.285 703.223 419.128 725.083 383.143 731.69C342.604 739.129 284.769 728.826 272.953 683.13C264.596 650.804 273.413 622.186 251.97 591.911C231.011 562.323 202.405 559.903 175.656 541.161C95.7084 485.15 117.629 340.496 195.678 292.681C228.908 272.322 255.837 279.963 291.67 273.587C334.801 265.911 346.454 246.5 374 217.252C402.641 186.844 446.755 146.791 487.207 134.385C550.412 115.002 623.767 137.048 669.745 182.813L669.733 182.801ZM288.939 709.125C309.485 729.513 349.808 735.271 377.413 731.199C425.674 724.072 465.333 691.654 516.593 708.744C533.08 714.242 547.342 720.514 564.703 724.528C639.916 741.936 752.937 731.661 757.84 633.98C759.873 593.505 735.728 530.811 720.26 492.762C700.529 444.236 678.411 414.804 690.489 359.221C700.052 315.205 720.097 291.352 705.45 242.942C681.224 162.876 579.186 114.581 499.408 132.635C453.86 142.939 409.257 182.235 377.762 215.214C351.183 243.052 337.998 265.645 296.9 274.159C266.075 280.546 235.949 274.609 206.86 288.187C124.763 326.502 97.2168 469.747 165.925 531.736C193.092 556.247 228.751 557.974 252.552 590.155C280.203 627.546 259.855 680.259 288.939 709.119V709.125Z" fill="#E8E4F3"/>
<path d="M517.331 158.509C594.885 154.109 687.063 213.042 684.489 296.672C683.557 326.953 667.513 353.278 664.7 383.882C661.182 422.157 683.673 459.934 697.138 494.911C706.811 520.046 717.369 549.12 723.187 575.329C749.027 691.701 635.127 718.222 544.673 694.149C508.66 684.562 496.634 671.55 455.745 680.733C405.86 691.943 368.151 717.685 316.064 688.836C272.823 664.885 293.194 620.344 274.488 583.392C255.591 546.065 215.052 545.146 188.6 517.88C135.383 463.024 152.278 354.132 212.291 310.342C243.838 287.327 266.329 294.477 301.726 289.36C354.553 281.725 366.526 249.948 401.614 217.53C434.716 186.942 470.462 161.166 517.319 158.509H517.331ZM513.843 160.242C465.203 163.419 420.774 199.019 388.237 232.54C362.543 259.009 350.569 281.251 310.968 289.273C273.859 296.793 247.49 287.027 213.718 311.162C146.303 359.353 133.799 490.874 212.681 534.421C237.63 548.196 259.184 553.429 274.483 580.516C296.421 619.356 271.885 666.837 321.695 690.182C374.959 715.143 409.569 688.258 459.234 678.405C501.129 670.088 519.585 687.767 557.59 695.772C638.674 712.856 739.901 688.859 723.892 586.187C715.937 535.172 688.839 484.694 671.525 436.59C654.351 388.872 666.284 368.704 678.822 323.961C705.926 227.232 602.439 154.449 513.848 160.242H513.843Z" fill="#E8E4F3"/>
<path d="M219.682 509.292C167.764 459.761 182.498 353.399 243.746 317.278C270.599 301.442 293.329 307.541 322.034 302.562C364.972 295.118 376.759 267.268 405.709 240.637C448.42 201.341 491.044 178.469 551.22 192.7C613.755 207.486 671.334 264.842 654.637 332.884C650.001 351.77 641.976 368.958 640.812 389.051C638.779 424.247 658.405 459.01 670.373 491.445C677.944 511.966 686.487 535.507 691.292 556.743C715.105 662.106 606.924 686.751 526.324 661.546C495.743 651.982 487.345 644.335 452.747 651.751C408.597 661.217 374.931 681.841 329.669 656.29C289.567 633.656 308.68 594.983 289.421 561.664C272.329 532.099 242.016 530.598 219.688 509.292H219.682ZM620.842 231.893C584.805 197.096 527.133 180.693 478.464 195.6C451.867 203.743 421.823 226.995 401.918 246.107C373.725 273.177 363.93 297.307 320.863 304.295C302.484 307.281 283.027 305.063 265.328 309.822C186.796 330.955 163.891 457.716 222.664 510.083C244.124 529.206 271.636 531.481 288.973 558.054C311.656 592.817 288.909 635.683 334.898 657.445C378.862 678.249 408.452 660.172 450.522 650.694C492.593 641.216 505.009 656.059 543.171 664.457C582.831 673.178 635.116 671.636 667.304 644.046C711.698 605.991 688.613 547.017 672.277 501.108C660.577 468.228 637.184 425.425 639.1 390.812C640.771 360.595 657.619 334.028 656 303.567C654.556 276.405 640.136 250.513 620.848 231.893H620.842Z" fill="#E8E4F3"/>
<path d="M641.079 613.69C609.613 643.556 554.48 643.798 515.252 630.942C507.413 628.372 499.988 624.352 491.975 622.278C443.661 609.78 404.101 650.798 351.029 627.58C312.139 610.572 321.847 588.521 311.725 555.698C303.485 528.998 286.008 522.558 264.116 509.956C189.381 466.934 212.332 324.81 302.39 318.873C323.862 317.458 343.342 318.844 363.038 308.02C376.421 300.668 384.871 288.811 395.225 278.161C417.134 255.619 447.674 229.647 478.924 222.034C553.939 203.755 648.16 265.074 627.288 347.895C623.416 363.275 617.889 376.715 616.951 393.082C615.227 423.312 632.011 455.649 642.011 483.77C656.96 525.816 679.358 577.351 641.079 613.679V613.69ZM600.342 259.171C562.756 220.787 500.524 207.573 452.263 234.279C423.779 250.04 407.018 269.163 385.063 291.768C355.613 322.084 337.495 317.244 298.412 320.709C219.99 327.675 196.259 448.799 250.017 497.96C267.482 513.93 289.275 516.696 304.341 537.615C325.952 567.625 306.944 604.438 347.296 624.358C397.939 649.366 432.381 615.128 480.496 618.657C494.38 619.674 507.291 627.055 520.505 630.93C589.859 651.266 678.991 625.449 657.676 537.546C649.127 502.286 633.001 469.083 622.053 434.863C610.184 397.79 616.672 383.356 625.663 348.016C634.201 314.46 624.178 283.503 600.348 259.165L600.342 259.171Z" fill="#E8E4F3"/>
<path d="M407.076 293.114C426.12 274.268 452.478 255.024 479.511 250.358C537.731 240.302 606.782 282.458 603.026 345.787C602.141 360.682 595.286 375.502 593.697 390.818C589.207 433.927 621.522 483.683 629.035 526.693C640.56 592.627 571.235 616.676 517.33 604.051C506.475 601.51 497.407 596.369 487.187 593.539C443.649 581.48 408.8 615.995 361.849 593.747C329.388 578.361 336.964 560.711 326.988 533.046C316.36 503.568 290.946 503.112 272.712 482.95C231.008 436.832 249.248 340.369 318.119 332.78C332.859 331.157 346.131 332.52 361.016 328.57C384.142 322.425 391.515 308.523 407.07 293.125L407.076 293.114ZM492.306 250.34C462.919 251.94 436.882 267.725 415.596 286.836C392.202 307.847 386.419 326.646 351.198 332.087C337.989 334.126 324.088 332.728 311.422 335.356C243.814 349.379 232.674 454.159 284.708 491.827C300.217 503.054 314.601 506.029 324.915 524.695C337.034 546.631 328.689 570.328 352.91 587.013C400.024 619.477 440.411 579.822 486.15 591.668C494.123 593.73 501.536 597.877 509.439 600.32C565.428 617.658 641.969 594.053 626.682 523.24C617.387 480.189 587.133 431.207 592.608 387.417C593.819 377.748 597.202 368.819 599.34 359.44C613.788 295.984 552.104 247.077 492.306 250.334V250.34Z" fill="#E8E4F3"/>
<path d="M487.082 278.623C534.592 277.93 579.015 313.652 575.672 363.107C574.968 373.515 570.548 383.709 569.837 394.278C567.187 433.396 588.584 467.899 596.416 504.769C608.413 561.214 545.447 586.453 499.097 571.315C493.453 569.473 488.218 566.377 482.54 564.644C442.583 552.452 411.502 582.497 369.094 557.673C342.037 541.837 351.803 521.449 336.697 500.883C329.697 491.353 321.514 488.119 312.412 481.667C274.96 455.111 270.627 388.878 306.186 359.036C330.291 338.81 357.249 350.863 383.415 339.797C395.691 334.605 401.008 326.294 409.773 317.44C430.592 296.429 456.176 279.073 487.088 278.623H487.082ZM417.687 311.728C398.853 329.459 394.52 341.761 365.745 345.948C355.461 347.444 345.129 346.439 335.153 347.935C278.722 356.379 269.515 432.702 302.127 470.492C312.074 482.014 326.377 486.455 336.167 497.937C353.032 517.718 342.928 540.381 369.443 556.166C406.721 578.355 431.728 557.604 468.842 560.324C483.081 561.37 494.438 569.195 508.129 572.164C554.445 582.202 607.592 555.155 594.104 501.859C584.484 463.838 563.058 426.632 569.412 386.354C570.489 379.516 572.924 372.677 573.826 365.903C580.949 312.364 526.963 274.586 477.071 280.858C455.058 283.625 433.487 296.851 417.681 311.728H417.687Z" fill="#E8E4F3"/>
<path d="M473.106 308.673C507.67 306.207 542.828 327.819 548.139 363.24C550.562 379.377 544.971 395.3 545.949 412.2C547.504 439.015 559.967 462.47 564.917 487.518C571.544 521.039 537.062 545.782 506.08 544.176C489.721 543.327 477.719 533.237 461.29 532.024C430.611 529.766 412.453 542.207 382.047 524.609C364.553 514.484 365.869 507.126 358.496 490.804C350.989 474.194 337.315 470.706 327.258 457.116C304.359 426.176 307.067 369.051 351.688 360.289C367.266 357.228 382.163 360.595 397.375 353.653C408.539 348.559 414.479 338.596 423.168 330.73C436.336 318.809 455.181 309.955 473.106 308.673ZM470.195 310.412C456.468 311.619 440.133 319.294 429.306 327.588C415.72 338.001 409.482 352.117 391.743 357.303C375.408 362.079 358.519 358.112 343.046 364.419C303.66 380.469 308.61 440.725 336.447 465.311C341.497 469.77 347.472 472.854 352.154 478.023C367.389 494.853 359.661 511.406 384.953 524.597C416.308 540.953 434.309 526.948 464.714 530.921C478.458 532.717 489.471 541.179 502.691 542.328C534.506 545.094 570.613 522.015 563.147 486.952C556.84 457.318 542.63 431.559 544.231 399.464C544.581 392.482 546.666 385.58 547.161 378.69C550.317 334.42 512.341 306.692 470.2 310.4L470.195 310.412Z" fill="#E8E4F3"/>
<path d="M420.059 360.861C423.524 357.673 426.681 353.243 430.466 350.107C450.174 333.762 485.454 334.011 504.957 350.65C528.764 370.957 520.07 400.88 523.348 428.273C525.107 442.977 530.209 454.875 532.905 468.459C537.745 492.849 505.802 519.301 481.802 510.505C467.575 505.29 462.013 501.599 445.602 500.802C422.534 499.682 413.583 502.223 392.315 490.152C377.22 481.587 378.955 474.951 370.453 462.759C367.331 458.283 362.835 454.846 359.44 450.584C344.316 431.605 334.264 393.504 359.085 378.02C378.624 365.828 400.299 379.019 420.065 360.855L420.059 360.861ZM460.883 339.867C450.377 340.791 438.159 345.296 430.146 352.105C426.075 355.565 423.146 360.203 419.104 363.668C401.866 378.453 382.729 369.397 364.402 376.952C336.984 388.26 344.077 425.818 357.518 445.559C361.857 451.929 367.96 456.475 372.194 462.759C379.2 473.149 378.396 479.814 390.405 487.426C412.774 501.611 426.314 498.139 450.843 499.641C463.888 500.438 469.59 504.302 480.8 508.605C498.848 515.53 518.264 504.51 527.233 488.864C536.312 473.027 529.591 465.606 525.882 450C522.638 436.347 520.833 422.174 520.338 408.145C519.848 394.342 521.997 382.912 516.733 369.565C507.659 346.567 484.51 337.782 460.883 339.855V339.867Z" fill="#E8E4F3"/>
</svg>
